<?xml version="1.0" encoding="UTF-8" standalone="no"?>
<!-- Created with Inkscape (http://www.inkscape.org/) -->

<svg
   version="1.1"
   id="svg1"
   width="150"
   height="150"
   viewBox="0 0 150 150"
   sodipodi:docname="Both.svg"
   inkscape:version="1.3.2 (091e20e, 2023-11-25, custom)"
   xmlns:inkscape="http://www.inkscape.org/namespaces/inkscape"
   xmlns:sodipodi="http://sodipodi.sourceforge.net/DTD/sodipodi-0.dtd"
   xmlns="http://www.w3.org/2000/svg"
   xmlns:svg="http://www.w3.org/2000/svg">
  <defs
     id="defs1" />
  <sodipodi:namedview
     id="namedview1"
     pagecolor="#ffffff"
     bordercolor="#000000"
     borderopacity="0.25"
     inkscape:showpageshadow="2"
     inkscape:pageopacity="0.0"
     inkscape:pagecheckerboard="0"
     inkscape:deskcolor="#d1d1d1"
     showgrid="false"
     inkscape:zoom="5.42"
     inkscape:cx="-27.95203"
     inkscape:cy="75"
     inkscape:window-width="1920"
     inkscape:window-height="1009"
     inkscape:window-x="1914"
     inkscape:window-y="1080"
     inkscape:window-maximized="1"
     inkscape:current-layer="g1" />
  <g
     inkscape:groupmode="layer"
     inkscape:label="Image"
     id="g1">
    <path
       style="fill:#000000"
       d="m 59.5,148.51792 c -3.3,-0.72769 -8.5875,-2.29924 -11.75,-3.49234 L 42,142.8563 v -1.09029 c 0,-1.05663 2.958145,-6.46412 7.585913,-13.86705 l 2.251104,-3.60103 7.331491,2.49573 7.331492,2.49574 9,0.0444 9,0.0444 6,-1.77779 c 3.3,-0.97779 8.668219,-3.1936 11.92938,-4.92403 l 5.92937,-3.14622 6.08569,-6.0857 6.0857,-6.08569 3.14622,-5.92937 C 125.40679,98.168219 127.61868,92.8 128.59169,89.5 l 1.7691,-6 0,-8.5 0,-8.5 -1.7691,-6 c -0.97301,-3.3 -3.19168,-8.682756 -4.9304,-11.961681 L 120.5,42.576638 l -6.87443,-6.808357 -6.87443,-6.808356 4.46351,-7.676322 c 5.52419,-9.500482 5.29465,-9.437765 12.52359,-3.421783 7.5657,6.296241 14.48729,15.440314 19.40677,25.63818 l 3.85923,8 1.48052,7 1.48051,7 v 9.5 9.5 l -1.45734,7 -1.45735,7 -5.13058,10.38232 -5.13058,10.38232 -8.76239,8.76239 -8.76239,8.76239 -10.38232,5.13058 -10.38232,5.13058 -7,1.45735 -7,1.45734 -9.5,-0.0621 -9.5,-0.0621 z M 28.380774,134.20675 C 17.096746,125.28724 8.2599304,112.63305 3.3752117,98.399159 L 0.66441633,90.5 0.21912806,77.915708 -0.22616022,65.331416 1.8124631,57.269754 3.8510864,49.208093 7.6029448,41.620326 11.354803,34.03256 16.2604,27.969813 c 2.698079,-3.334511 7.75925,-8.416574 11.247049,-11.293472 L 33.8489,11.445616 41.528496,7.6483511 49.208093,3.8510864 57.317038,1.800506 65.425983,-0.25007427 77.962992,0.29272183 90.5,0.83551792 96.5,2.7859529 C 110.64704,7.3847661 110.5605,6.342911 98.359167,25.16825 L 94.037252,31.8365 90.066932,29.91825 86.096612,28 l -2.989289,0 -2.989289,0 -0.620302,1.00367 -0.620303,1.003671 -2.431505,-0.610269 -2.431506,-0.610269 -0.892044,2.356598 L 72.23033,33.5 l 1.059721,1.313188 1.059721,1.313188 0.972593,-1.813188 c 0.534927,-0.997253 1.054815,-1.924275 1.155309,-2.060049 0.100493,-0.135773 2.386819,1.776727 5.080724,4.25 C 84.252304,38.976413 86.803716,41 87.228204,41 87.652692,41 88,42.046559 88,43.325686 l 0,2.325686 2.314451,2.174314 L 92.628902,50 94.814451,50 97,50 V 49.059017 C 97,48.541476 96.55,47.839919 96,47.5 l -1,-0.618034 v -3.454552 c 0,-1.900003 0.5625,-4.460946 1.25,-5.690983 0.6875,-1.230037 1.328749,-2.39018 1.424997,-2.578095 C 98.123888,34.281923 100.5,36.672049 100.5,38 v 1.5 l 2.13531,-0.217889 2.13531,-0.21789 5.00426,5.291264 c 5.59059,5.911227 8.87811,11.703535 10.86577,19.144515 l 1.33561,5 v 7 7 l -1.37119,5.149811 c -0.75415,2.832396 -2.58914,7.387602 -4.07776,10.122679 l -2.70657,4.97287 -5.43345,5.36595 -5.43345,5.36596 -5.726921,0.19027 C 94.077114,113.77219 89.25,113.92961 86.5,114.01737 l -5,0.15956 -1.75,1.56652 C 78.7875,116.60504 78,118.14023 78,119.15499 V 121 l -4.25,-0.0119 c -6.003301,-0.0168 -13.877888,-2.30502 -20.18857,-5.86655 l -5.405659,-3.05077 -2.077885,3.52176 C 44.935048,117.52953 44,119.27811 44,119.47829 c 0,0.36655 -9.948119,17.77653 -10.459902,18.30565 -0.151051,0.15616 -2.472746,-1.45357 -5.159324,-3.57719 z m 43.837633,-18.76633 -2.226606,-1.55957 0.596771,-2.37773 0.596771,-2.37772 -3.645506,-0.6839 -3.645506,-0.68391 0.63229,-2.87879 L 65.158911,102 H 63.579455 C 62.710755,102 62,102.45 62,103 v 1 h -2.171259 c -1.194193,0 -2.994193,-0.74474 -4,-1.65499 L 54,100.69002 V 98 95.309975 l 1.946752,-1.761787 1.946753,-1.761786 4.803247,-0.0445 c 6.27265,-0.05811 8.762668,0.806831 10.162521,3.5301 L 74.00454,97.5 l -0.581269,-3.247924 -0.58127,-3.247924 2.960042,-2.960041 2.960041,-2.960041 0.685829,-2.732563 c 0.777613,-3.098257 6.366994,-10.583935 7.417842,-9.934475 0.379589,0.234599 1.80258,-0.477311 3.162203,-1.582021 1.359623,-1.104711 1.88983,-1.705775 1.178237,-1.335698 L 89.91239,70.17218 88.582943,69.068837 87.253496,67.965494 85.626748,68.589736 84,69.213978 V 68.026544 66.83911 l 4,-1.571245 4,-1.571245 V 62.535401 C 92,60.127291 80.485658,52 77.073967,52 l -0.864445,0 0.05657,6.005339 c 0.03111,3.302936 -0.230156,6.292061 -0.580595,6.6425 C 74.813255,65.520078 72,63.065418 72,61.432121 V 60.109132 L 69.25,58.795199 66.5,57.481267 66.174877,55.19811 65.849753,52.914953 69.924877,48.839829 C 74.720177,44.044529 74.734669,44 71.5,44 H 69 l -0.06339,-2.25 -0.06339,-2.25 -0.928155,2.314245 -0.928155,2.314244 -1.008458,-0.623261 C 65.453806,43.162434 65,42.008524 65,40.940983 V 39 l -2,-2 c -1.1,-1.1 -2.255324,-2 -2.567388,-2 -0.919361,0 0.735961,4.43537 1.94381,5.208359 l 1.10686,0.708359 -1.026325,1.026325 -1.026325,1.026325 L 56.215316,38.407137 51,33.844905 51,31.391068 51,28.93723 49.538236,28.376299 48.076472,27.815367 44.884598,29.407684 C 43.129067,30.283458 41.138616,31 40.461372,31 c -0.677244,0 -1.979038,1.141112 -2.892875,2.535805 l -1.661524,2.535805 2.983738,1.040136 2.983738,1.040137 0.627853,2.858599 0.627854,2.8586 -1.059501,3.815459 c -0.582726,2.098502 -1.062011,5.44628 -1.065078,7.439506 L 41,58.748094 38.614931,63.124047 36.229861,67.5 l -0.601883,5 -0.601884,5 1.979406,6 c 1.088673,3.3 1.749229,4.7625 1.467901,3.25 L 37.961896,84 l 1.269052,0.0085 1.269052,0.0085 1.970615,6.241451 c 1.083838,3.432799 1.869285,6.726988 1.745438,7.320422 -0.345346,1.654788 6.799011,6.95296 11.283947,8.36804 2.2,0.69414 5.651678,2.32271 7.670396,3.61904 l 3.670395,2.35697 0.626592,1.97421 0.626592,1.97422 1.703013,0.44827 c 0.936656,0.24655 2.36564,0.50048 3.175518,0.56428 L 74.445012,117 Z M 86.5,105 c -0.339919,-0.55 -1.293034,-1 -2.118034,-1 h -1.5 L 83.5,105 c 0.339919,0.55 1.293034,1 2.118034,1 h 1.5 z M 80,104 c 0,-0.55 -0.7875,-0.99311 -1.75,-0.98469 L 76.5,103.03063 78,104 c 1.887213,1.21961 2,1.21961 2,0 z M 96,65.5 C 95.315311,64.675 94.305111,64 93.755111,64 h -1 L 94,65.5 c 0.684689,0.825 1.694889,1.5 2.244889,1.5 h 1 z M 83.411795,49.369262 84.037568,47.738524 80.558357,44.359556 C 78.64479,42.501124 75.952268,40.552151 74.574974,40.028505 l -2.504171,-0.952084 -0.60737,0.982746 -0.60737,0.982745 3.677054,1.536372 3.677054,1.536371 -0.426188,2.903801 -0.426187,2.903801 1.571102,0.42287 c 3.040889,0.818471 3.863022,0.639504 4.482897,-0.975865 z M 50,18.303833 V 17 h 1.964816 1.964816 L 55,15 l 1.070368,-2 1.604573,0 c 0.882516,0 2.104183,-0.627055 2.714816,-1.393457 L 61.5,10.213087 66.25,9.5452705 71,8.8774542 v 1.0671142 1.0671146 l 7.75,-0.401496 c 4.2625,-0.220822 8.512749,-0.7120978 9.444998,-1.0917237 l 1.694999,-0.6902288 4.50398,3.0988195 c 2.477189,1.704351 4.766351,3.523345 5.087026,4.042209 l 0.583047,0.943389 1.51057,-0.579661 c 0.83082,-0.318813 2.39224,-2.307878 3.46984,-4.420144 l 1.95927,-3.840483 -2.14391,-1.1473877 C 103.68066,6.2939131 99.742325,4.8893221 96.107952,3.8036629 L 89.5,1.8297371 77.5,1.4110552 65.5,0.99237329 57,3.2461866 48.5,5.5 48.81023,8.1634962 49.120459,10.826992 47.06023,11.480884 45,12.134775 v 1.892144 1.892143 l -2.627974,2.436795 -2.627975,2.436796 2.205534,1.180366 2.205533,1.180365 -0.63889,1.673308 L 42.877337,26.5 46.438668,23.053833 C 48.397401,21.158441 50,19.020941 50,18.303833 Z"
       id="path1" />
  </g>
</svg>
